<svg width="15" height="15" viewBox="0 0 15 15" fill="none" xmlns="http://www.w3.org/2000/svg">
<path fill-rule="evenodd" clip-rule="evenodd" d="M3.84072 9.08889C3.84088 8.527 3.9624 7.97215 4.1965 7.46439C4.4306 6.95662 4.77145 6.50861 5.19445 6.15268C3.39164 5.49945 0.768471 4.19798 0.0064849 2C0.0064849 2 -0.155639 4.22632 1.14135 6.71759C1.14135 6.71759 2.52103 7.64745 3.07225 8.90059L2.00061 8.22069C2.27142 9.11416 2.60353 9.98676 2.99444 10.8319C3.61699 12.0651 4.7778 12.9982 4.7778 12.9982C4.7778 12.9982 4.23792 11.3319 4.87182 11.7319L4.93343 11.7752C4.58665 11.4228 4.31134 11.0031 4.1235 10.5406C3.93564 10.0781 3.83898 9.58178 3.8391 9.08056L3.84072 9.08889ZM9.8574 6.13602C10.2864 6.49159 10.6326 6.94135 10.8705 7.4523C11.1083 7.96325 11.2319 8.52244 11.2322 9.08889C11.2315 9.43127 11.1862 9.77201 11.0977 10.1021C10.9355 10.6959 10.6343 11.24 10.2206 11.6868C10.6892 11.5352 10.2206 13 10.2206 13C10.2206 13 11.3798 12.0634 12.0039 10.8336C12.3952 9.98916 12.7273 9.11707 12.9978 8.22403L11.9342 8.89059C12.4903 7.64411 13.8587 6.71759 13.8587 6.71759C15.1556 4.22632 14.9935 2 14.9935 2C14.2429 4.17799 11.657 5.47612 9.8574 6.13602ZM10.0568 9.08888C10.0568 10.52 8.92807 11.6801 7.53577 11.6801C6.14345 11.6801 5.01474 10.52 5.01474 9.08888C5.01474 7.65777 6.14345 6.49763 7.53577 6.49763C8.92807 6.49763 10.0568 7.65777 10.0568 9.08888Z" fill="#8C513A"/>
</svg>
