<svg width="16" height="15" viewBox="0 0 16 15" fill="none" xmlns="http://www.w3.org/2000/svg">
<g clip-path="url(#clip0_7_84)">
<path d="M6.315 15C6.58966 14.2471 6.81883 13.4744 7.00098 12.6872C6.44735 12.5611 5.93584 12.2657 5.52335 11.8339C5.11087 11.402 4.81358 10.8506 4.66456 10.2411C4.51553 9.63153 4.52063 8.98768 4.67925 8.38116C4.83788 7.77464 5.14384 7.22924 5.56307 6.80561C4.35439 5.40575 2.26515 2.56363 2.64111 0C2.64111 0 1.54454 1.82958 1.52971 4.64589C1.52971 4.64589 2.16785 5.95906 2.18929 7.23903C1.31039 6.36297 0.375422 5.10697 0.353989 3.73478C0.353989 3.73478 0.312766 3.84913 0.258346 4.05201L0.131375 4.63667C0.0596835 5.0581 0.0216096 5.48582 0.0176018 5.91479C-0.00456518 6.36754 -0.00456518 6.82132 0.0176018 7.27407C0.0706001 8.50634 0.340697 9.71476 0.812405 10.83C0.812405 10.83 1.03501 10.8816 1.3879 10.9867C2.30966 11.2486 3.59257 11.7245 4.60997 12.4825L4.70397 12.5544C5.49712 13.1501 6.12538 13.9137 6.22762 14.8672" fill="#F4C874"/>
<path d="M10.5 9.30194C10.5004 8.80741 10.354 8.32388 10.0796 7.91249C9.80509 7.50111 9.41477 7.18038 8.95803 6.99086C8.50126 6.80134 7.99854 6.75154 7.51347 6.84779C7.0284 6.94403 6.58275 7.18196 6.23293 7.53153C5.8831 7.88106 5.64482 8.32651 5.54818 8.81151C5.45156 9.29651 5.50096 9.79928 5.69012 10.2562C5.87927 10.7131 6.1997 11.1037 6.61086 11.3785C7.02202 11.6532 7.50544 11.8 7.99997 11.8C8.6625 11.7995 9.29778 11.5362 9.76644 11.0679C10.2351 10.5996 10.499 9.96448 10.5 9.30194Z" fill="#3FBFDD"/>
<path d="M9.68712 15C9.41243 14.2471 9.18316 13.4744 9.00098 12.6872C9.55474 12.5611 10.0663 12.2657 10.4789 11.8339C10.8916 11.402 11.1889 10.8506 11.338 10.2411C11.487 9.63153 11.4819 8.98768 11.3233 8.38116C11.1645 7.77464 10.8585 7.22924 10.4392 6.80561C11.6482 5.40575 13.7379 2.56363 13.3619 0C13.3619 0 14.4587 1.82958 14.4719 4.64589C14.4719 4.64589 13.8352 5.95906 13.8121 7.23903C14.6913 6.36297 15.6264 5.10697 15.6478 3.73478C15.6478 3.73478 15.6892 3.84913 15.7436 4.05201L15.8689 4.63298C15.9421 5.05421 15.9807 5.48202 15.9844 5.9111C16.0065 6.36386 16.0065 6.81763 15.9844 7.27038C15.9329 8.50227 15.6644 9.71068 15.1943 10.8263C15.1943 10.8263 14.97 10.8779 14.6186 10.983C13.695 11.2449 12.4134 11.7208 11.3958 12.4788L11.3002 12.5507C10.5068 13.1464 9.87839 13.91 9.77617 14.8635" fill="#F4C874"/>
</g>
<defs>
<clipPath id="clip0_7_84">
<rect width="16" height="15" fill="white"/>
</clipPath>
</defs>
</svg>
