<svg width="18" height="15" viewBox="0 0 18 15" fill="none" xmlns="http://www.w3.org/2000/svg">
<g clip-path="url(#clip0_7_62)">
<path fill-rule="evenodd" clip-rule="evenodd" d="M6.26338 6.84497C5.70278 7.51931 5.39558 8.37772 5.39739 9.26479C5.39903 9.87349 5.54519 10.4726 5.82317 11.01C6.10116 11.5475 6.50257 12.007 6.99254 12.3488C7.10366 12.4272 7.21934 12.4985 7.33893 12.5624C7.5776 12.9133 7.74548 13.3098 7.83264 13.7284C7.91979 14.1471 7.92448 14.5795 7.8464 15C7.70092 13.9263 6.17505 12.5179 5.49438 12.16C4.81371 11.8021 5.49438 13.4759 5.49438 13.4759C3.8497 12.4776 3.5313 11.5293 3.21585 10.5898C2.98498 9.90219 2.75569 9.21929 2.00915 8.525C3.15465 8.86381 3.53725 9.42149 3.53725 9.42149C3.39058 7.61383 1.51706 7.06514 1.51706 7.06514C1.27784 6.2349 1.14515 5.5579 1.02857 4.96302C0.813837 3.86738 0.653707 3.05034 -0.016861 2.06769C3.28538 2.96473 4.63716 4.5938 6.26338 6.84497ZM12.6027 9.26479C12.6045 8.37772 12.2973 7.51932 11.7367 6.84498C13.3629 4.59381 14.7147 2.96473 18.0169 2.0677C17.3463 3.05034 17.1862 3.86739 16.9715 4.96303C16.8549 5.5579 16.7222 6.23491 16.483 7.06514C16.483 7.06514 14.6095 7.61384 14.4628 9.42149C14.4628 9.42149 14.8454 8.86381 15.9909 8.525C15.2443 9.21929 15.0151 9.90219 14.7842 10.5898C14.4687 11.5293 14.1503 12.4776 12.5057 13.4759C12.5057 13.4759 13.1863 11.8021 12.5057 12.16C11.825 12.5179 10.2991 13.9263 10.1536 15C10.0756 14.5795 10.0802 14.1471 10.1674 13.7284C10.2546 13.3098 10.4224 12.9133 10.6611 12.5624C10.7807 12.4985 10.8964 12.4272 11.0075 12.3488C11.4975 12.007 11.8989 11.5475 12.1769 11.01C12.4549 10.4726 12.601 9.87349 12.6027 9.26479ZM9.03477 11.8787C10.4036 11.8787 11.5133 10.7379 11.5133 9.33069C11.5133 7.92344 10.4036 6.78266 9.03477 6.78266C7.66596 6.78266 6.55632 7.92344 6.55632 9.33069C6.55632 10.7379 7.66596 11.8787 9.03477 11.8787Z" fill="#8141EB"/>
</g>
<defs>
<clipPath id="clip0_7_62">
<rect width="18" height="15" fill="white"/>
</clipPath>
</defs>
</svg>
