<svg width="16" height="15" viewBox="0 0 16 15" fill="none" xmlns="http://www.w3.org/2000/svg">
<path fill-rule="evenodd" clip-rule="evenodd" d="M5.27194 6.84498C4.71135 7.51932 4.40414 8.37772 4.40595 9.26479C4.40759 9.87349 4.55375 10.4726 4.83174 11.01C5.10973 11.5475 5.51114 12.007 6.00111 12.3488C6.11223 12.4272 6.22791 12.4985 6.3475 12.5624C6.58617 12.9133 6.75404 13.3098 6.8412 13.7284C6.92836 14.1471 6.93304 14.5795 6.85497 15C6.70948 13.9263 5.18361 12.5179 4.50294 12.16C3.82228 11.8021 4.50294 13.4759 4.50294 13.4759C4.50294 13.4759 3.35445 12.6282 2.32078 11.0618C2.30684 11.0407 2.29298 11.0196 2.2792 10.9987C1.61852 9.99699 1.13905 9.26999 0.121471 8.98957C1.10707 8.65517 2.54581 9.42149 2.54581 9.42149C2.24098 8.00414 0.746291 6.78978 0.746291 6.78978C0.124481 5.30311 -0.114129 3.67677 0.0535011 2.06769C0.659691 4.53023 3.59193 6.11672 5.27194 6.84498ZM11.594 9.26479C11.5958 8.37772 11.2886 7.51932 10.728 6.84498C12.4081 6.11672 15.3403 4.53023 15.9465 2.06769C16.1141 3.67677 15.8755 5.30311 15.2537 6.78978C15.2537 6.78978 13.759 8.00414 13.4542 9.42149C13.4542 9.42149 14.8929 8.65517 15.8785 8.98957C14.8609 9.26999 14.3815 9.99699 13.7208 10.9987L13.6792 11.0618C12.6455 12.6282 11.497 13.4759 11.497 13.4759C11.497 13.4759 12.1777 11.8021 11.497 12.16C10.8164 12.5179 9.29055 13.9263 9.14505 15C9.06695 14.5795 9.07165 14.1471 9.15885 13.7284C9.24595 13.3098 9.41385 12.9133 9.65255 12.5624C9.77215 12.4985 9.88785 12.4272 9.99895 12.3488C10.4889 12.007 10.8903 11.5475 11.1683 11.01C11.4462 10.4726 11.5924 9.87349 11.594 9.26479ZM8.02625 11.8787C9.39505 11.8787 10.5047 10.7379 10.5047 9.33069C10.5047 7.92344 9.39505 6.78266 8.02625 6.78266C6.65743 6.78266 5.54779 7.92344 5.54779 9.33069C5.54779 10.7379 6.65743 11.8787 8.02625 11.8787Z" fill="#149C3A"/>
</svg>
