<svg width="16" height="15" viewBox="0 0 16 15" fill="none" xmlns="http://www.w3.org/2000/svg">
<g clip-path="url(#clip0_7_53)">
<path fill-rule="evenodd" clip-rule="evenodd" d="M10.7322 6.77909C11.2928 7.45343 11.6 8.31183 11.5982 9.1989C11.5966 9.8076 11.4504 10.4067 11.1724 10.9441C10.8944 11.4816 10.493 11.9411 10.003 12.2829C9.89188 12.3613 9.7762 12.4326 9.65661 12.4965C9.41794 12.8474 9.25007 13.2439 9.16291 13.6625C9.07575 14.0812 9.07107 14.5136 9.14914 14.9341C9.29463 13.8604 10.8205 12.452 11.5012 12.0941C12.1819 11.7362 11.5012 13.41 11.5012 13.41C11.5012 13.41 12.7707 12.5304 13.5034 11.3053C13.9672 10.4616 14.3723 9.5851 14.7158 8.68253L13.4583 9.35559C13.7632 7.93825 15.2579 6.72389 15.2579 6.72389C15.8797 5.23722 16.1183 3.61088 15.9507 2.0018C15.3445 4.46434 12.4122 6.05083 10.7322 6.77909ZM4.39833 9.26478C4.39683 8.37778 4.704 7.51947 5.26432 6.84498C3.58777 6.11672 0.653803 4.5231 0.0493436 2.06769C-0.11827 3.67735 0.120328 5.30426 0.742134 6.79156C0.742134 6.79156 2.22124 8.00413 2.52607 9.42147L1.26692 8.7502C1.61295 9.65253 2.021 10.5284 2.48796 11.3712C3.22059 12.5962 4.49706 13.4758 4.49706 13.4758C4.49706 13.4758 3.80427 11.795 4.49706 12.1618C5.18985 12.5286 6.6932 13.9317 6.83869 15C6.91676 14.5795 6.91208 14.1471 6.82492 13.7284C6.73776 13.3097 6.56989 12.9133 6.33122 12.5624C6.212 12.4972 6.09636 12.4253 5.98483 12.347C5.4967 12.0044 5.09713 11.5447 4.82069 11.0076C4.54426 10.4706 4.39929 9.87239 4.39833 9.26478ZM8.03031 11.8128C9.39912 11.8128 10.5088 10.672 10.5088 9.26477C10.5088 7.85755 9.39912 6.71677 8.03031 6.71677C6.66149 6.71677 5.55185 7.85755 5.55185 9.26477C5.55185 10.672 6.66149 11.8128 8.03031 11.8128Z" fill="#CD8837"/>
</g>
<defs>
<clipPath id="clip0_7_53">
<rect width="16" height="15" fill="white"/>
</clipPath>
</defs>
</svg>
