<svg width="15" height="15" viewBox="0 0 15 15" fill="none" xmlns="http://www.w3.org/2000/svg">
<path fill-rule="evenodd" clip-rule="evenodd" d="M3.84128 9.0889C3.84133 8.52698 3.96281 7.9721 4.19696 7.46432C4.43111 6.95654 4.77207 6.50853 5.19522 6.15269C3.39214 5.49945 0.768577 4.19799 0.0064859 2C0.0064859 2 -0.155662 4.22632 1.14152 6.7176C1.14152 6.7176 2.5214 7.64746 3.0727 8.90059L2.00091 8.2207C2.27176 9.11416 2.60391 9.98677 2.99487 10.832C3.61752 12.0634 4.7785 12.9982 4.7785 12.9982C4.7785 12.9982 4.23855 11.3319 4.87092 11.7319C4.89273 11.7451 4.91384 11.7596 4.93416 11.7752C4.58732 11.4228 4.31198 11.0031 4.1241 10.5406C3.93623 10.0781 3.83954 9.58179 3.83966 9.08056L3.84128 9.0889ZM9.85747 6.13602C10.2529 6.4643 10.5779 6.87301 10.8124 7.33651C11.0468 7.80002 11.1855 8.30832 11.2198 8.82951C11.2541 9.35071 11.1832 9.87356 11.0115 10.3653C10.8398 10.8569 10.5711 11.3069 10.2223 11.6868C10.6909 11.5352 10.2223 13 10.2223 13C10.2223 13 11.3833 12.0617 12.0059 10.8336C12.3949 9.98817 12.7255 9.11559 12.9951 8.22236L11.9314 8.88893C12.4924 7.64412 13.8593 6.7176 13.8593 6.7176C15.1483 4.22632 14.9943 2 14.9943 2C14.2435 4.178 11.6589 5.47612 9.85747 6.13602ZM10.0586 9.08889C10.0586 10.52 8.92964 11.6801 7.53713 11.6801C6.1446 11.6801 5.01573 10.52 5.01573 9.08889C5.01573 7.65778 6.1446 6.49763 7.53713 6.49763C8.92964 6.49763 10.0586 7.65778 10.0586 9.08889Z" fill="#51484A"/>
</svg>
