<svg width="16" height="15" viewBox="0 0 16 15" fill="none" xmlns="http://www.w3.org/2000/svg">
<g clip-path="url(#clip0_7_74)">
<path d="M6.61488 15C6.90271 14.2471 7.14287 13.4744 7.33375 12.6872C6.75357 12.5611 6.21753 12.2657 5.78526 11.8339C5.353 11.402 5.04145 10.8506 4.88528 10.2411C4.72911 9.63153 4.73445 8.98768 4.90068 8.38116C5.06692 7.77464 5.38755 7.22924 5.82689 6.80561C4.56024 5.40575 2.3708 2.56363 2.76479 0C2.76479 0 1.61564 1.82958 1.60009 4.64589C1.60009 4.64589 2.26884 5.95906 2.29131 7.23903C1.37026 6.36297 0.390449 5.10697 0.367989 3.73478C0.367989 3.73478 0.324789 3.84913 0.267759 4.05201L0.134699 4.63667C0.0595693 5.0581 0.0196694 5.48582 0.0154694 5.91479C-0.00776063 6.36754 -0.00776063 6.82132 0.0154694 7.27407C0.0710094 8.50634 0.354059 9.71476 0.848389 10.83C0.848389 10.83 1.08167 10.8816 1.45148 10.9867C2.41745 11.2486 3.76188 11.7245 4.82808 12.4825L4.92658 12.5544C5.75777 13.1501 6.41616 13.9137 6.5233 14.8672" fill="#A4584E"/>
<path d="M10.5 9.30194C10.5003 8.80742 10.3541 8.32388 10.0796 7.91249C9.80512 7.50111 9.4148 7.18038 8.95806 6.99086C8.50128 6.80134 7.99855 6.75154 7.51348 6.84779C7.0284 6.94402 6.58276 7.18197 6.23293 7.53152C5.8831 7.88107 5.64481 8.32651 5.54818 8.81152C5.45156 9.29652 5.50095 9.79928 5.69011 10.2562C5.87927 10.7131 6.19971 11.1037 6.61087 11.3784C7.02203 11.6533 7.50545 11.8 7.99998 11.8C8.66252 11.7995 9.2978 11.5362 9.76647 11.0678C10.2351 10.5996 10.499 9.96448 10.5 9.30194Z" fill="#9D48E0"/>
<path d="M9.3849 15C9.0971 14.2471 8.8569 13.4744 8.66602 12.6872C9.2462 12.5611 9.7822 12.2657 10.2145 11.8339C10.6468 11.402 10.9583 10.8506 11.1145 10.2411C11.2707 9.63153 11.2653 8.98768 11.0991 8.38116C10.9328 7.77464 10.6122 7.22924 10.1729 6.80561C11.4395 5.40575 13.629 2.56363 13.235 0C13.235 0 14.3841 1.82958 14.398 4.64589C14.398 4.64589 13.7309 5.95906 13.7067 7.23903C14.6278 6.36297 15.6076 5.10697 15.63 3.73478C15.63 3.73478 15.6733 3.84913 15.7303 4.05201L15.8616 4.63298C15.9383 5.05421 15.9788 5.48202 15.9826 5.9111C16.0058 6.36386 16.0058 6.81763 15.9826 7.27038C15.9287 8.50227 15.6474 9.71068 15.1548 10.8263C15.1548 10.8263 14.9198 10.8779 14.5517 10.983C13.584 11.2449 12.2413 11.7208 11.1751 12.4788L11.0749 12.5507C10.2437 13.1464 9.5853 13.91 9.4782 14.8635" fill="#A4584E"/>
</g>
<defs>
<clipPath id="clip0_7_74">
<rect width="16" height="15" fill="white"/>
</clipPath>
</defs>
</svg>
