<svg width="16" height="15" viewBox="0 0 16 15" fill="none" xmlns="http://www.w3.org/2000/svg">
<g clip-path="url(#clip0_7_56)">
<path fill-rule="evenodd" clip-rule="evenodd" d="M10.7321 6.77909C11.2927 7.45343 11.5999 8.31183 11.5981 9.1989C11.5965 9.8076 11.4503 10.4067 11.1723 10.9441C10.8944 11.4816 10.493 11.9411 10.003 12.2829C9.89196 12.3613 9.77625 12.4326 9.65665 12.4965C9.41795 12.8474 9.25005 13.2439 9.16295 13.6625C9.07575 14.0812 9.07106 14.5136 9.14916 14.9341C9.29466 13.8604 10.8205 12.452 11.5011 12.0941C12.1818 11.7362 11.5011 13.41 11.5011 13.41C11.5011 13.41 12.7707 12.5304 13.5033 11.3053C13.9671 10.4616 14.3723 9.5851 14.7157 8.68253L13.4583 9.3556C13.7631 7.93825 15.2578 6.72389 15.2578 6.72389C15.8796 5.23722 16.1182 3.61088 15.9506 2.0018C15.3444 4.46434 12.4122 6.05083 10.7321 6.77909ZM4.39837 9.2648C4.39687 8.37778 4.70403 7.51947 5.26436 6.84498C3.58781 6.11672 0.653837 4.5231 0.0493773 2.06769C-0.118243 3.67735 0.120357 5.30426 0.742167 6.79156C0.742167 6.79156 2.22127 8.00413 2.52609 9.4215L1.26696 8.7502C1.61299 9.6525 2.02104 10.5284 2.488 11.3712C3.22063 12.5962 4.49709 13.4758 4.49709 13.4758C4.49709 13.4758 3.8043 11.795 4.49709 12.1618C5.18988 12.5286 6.69324 13.9317 6.83873 15C6.9168 14.5795 6.91212 14.1471 6.82496 13.7284C6.7378 13.3097 6.56993 12.9133 6.33126 12.5624C6.21203 12.4972 6.09639 12.4253 5.98486 12.347C5.49673 12.0044 5.09716 11.5447 4.82073 11.0076C4.5443 10.4706 4.39933 9.8724 4.39837 9.2648ZM8.03036 11.8128C9.39916 11.8128 10.5087 10.672 10.5087 9.2648C10.5087 7.85755 9.39916 6.71677 8.03036 6.71677C6.66153 6.71677 5.55188 7.85755 5.55188 9.2648C5.55188 10.672 6.66153 11.8128 8.03036 11.8128Z" fill="#25ACD6"/>
</g>
<defs>
<clipPath id="clip0_7_56">
<rect width="16" height="15" fill="white"/>
</clipPath>
</defs>
</svg>
