<svg width="15" height="15" viewBox="0 0 15 15" fill="none" xmlns="http://www.w3.org/2000/svg">
<path fill-rule="evenodd" clip-rule="evenodd" d="M3.84073 9.0889C3.84089 8.527 3.9624 7.97216 4.19651 7.4644C4.43061 6.95662 4.77146 6.50861 5.19446 6.15269C3.39164 5.49945 0.768473 4.19799 0.00648496 2C0.00648496 2 -0.155639 4.22632 1.14135 6.7176C1.14135 6.7176 2.52103 7.64746 3.07226 8.90059L2.00062 8.2207C2.27142 9.11416 2.60353 9.98677 2.99444 10.832C3.617 12.0651 4.77781 12.9982 4.77781 12.9982C4.77781 12.9982 4.23793 11.3319 4.87183 11.7319L4.93344 11.7752C4.58666 11.4228 4.31135 11.0031 4.12351 10.5406C3.93565 10.0781 3.83898 9.58179 3.83911 9.08056L3.84073 9.0889ZM9.85738 6.13602C10.2861 6.49169 10.6321 6.9415 10.8697 7.45246C11.1073 7.96341 11.2306 8.52256 11.2306 9.0889C11.2304 9.4312 11.1857 9.77194 11.0977 10.1021C10.9355 10.6959 10.6343 11.24 10.2206 11.6868C10.6891 11.5352 10.2206 13 10.2206 13C10.2206 13 11.3798 12.0634 12.0039 10.8336C12.3952 9.98916 12.7273 9.11708 12.9978 8.22403L11.9342 8.89059C12.4903 7.64412 13.8587 6.7176 13.8587 6.7176C15.1556 4.22632 14.9935 2 14.9935 2C14.2429 4.178 11.6569 5.47612 9.85738 6.13602ZM10.0569 9.08889C10.0569 10.52 8.92809 11.6801 7.53579 11.6801C6.14346 11.6801 5.01476 10.52 5.01476 9.08889C5.01476 7.65778 6.14346 6.49763 7.53579 6.49763C8.92809 6.49763 10.0569 7.65778 10.0569 9.08889Z" fill="#80989D"/>
</svg>
