<svg width="15" height="15" viewBox="0 0 15 15" fill="none" xmlns="http://www.w3.org/2000/svg">
<g clip-path="url(#clip0_7_2)">
<path fill-rule="evenodd" clip-rule="evenodd" d="M7.49853 0L9.3543 2.14285H9.33475C8.75646 1.96892 8.13993 1.875 7.5 1.875C6.86007 1.875 6.24354 1.96892 5.66525 2.14285H5.64277L7.49853 0ZM7.5 13.125C6.86007 13.125 6.24354 13.0311 5.66525 12.8572H5.64277L7.49853 15L9.3543 12.8572H9.33475C8.75646 13.0311 8.13993 13.125 7.5 13.125ZM0 7.49999C0 5.74683 0.601532 4.13416 1.60946 2.85713H4.32346C2.84494 3.87064 1.875 5.57204 1.875 7.49999C1.875 9.42797 2.84495 11.1293 4.32348 12.1429H1.60947C0.601537 10.8658 0 9.25315 0 7.49999ZM13.3905 12.1429C14.3985 10.8658 15 9.25315 15 7.49999C15 5.74683 14.3985 4.13416 13.3905 2.85713H10.6765C12.1551 3.87064 13.125 5.57204 13.125 7.49999C13.125 9.42797 12.1551 11.1293 10.6765 12.1429H13.3905ZM10.3125 7.5C10.3125 9.0533 9.0533 10.3125 7.5 10.3125C5.9467 10.3125 4.6875 9.0533 4.6875 7.5C4.6875 5.9467 5.9467 4.6875 7.5 4.6875C9.0533 4.6875 10.3125 5.9467 10.3125 7.5Z" fill="#63666B"/>
</g>
<defs>
<clipPath id="clip0_7_2">
<rect width="15" height="15" fill="white"/>
</clipPath>
</defs>
</svg>
